<mxfile host="app.diagrams.net" modified="2021-10-12T10:02:23.724Z" agent="5.0 (Windows NT 6.1; Win64; x64) AppleWebKit/537.36 (KHTML, like Gecko) Chrome/92.0.4515.131 Safari/537.36" etag="SodvOGNNWUIOwUxO114S" version="14.9.8" type="github">
  <diagram id="3jRSdvpOarggcgMNoG4k" name="第 1 页">
    <mxGraphModel dx="2249" dy="735" grid="1" gridSize="10" guides="1" tooltips="1" connect="1" arrows="1" fold="1" page="1" pageScale="1" pageWidth="827" pageHeight="1169" math="0" shadow="0">
      <root>
        <mxCell id="0" />
        <mxCell id="1" parent="0" />
        <mxCell id="yfNpy2FmDrcI2LS20z6D-1" value="" style="whiteSpace=wrap;html=1;rounded=1;fillColor=#f8cecc;strokeColor=#b85450;fontFamily=Comic Sans MS;" vertex="1" parent="1">
          <mxGeometry x="-10" y="150" width="150" height="280" as="geometry" />
        </mxCell>
        <mxCell id="yfNpy2FmDrcI2LS20z6D-2" value="recharge_log" style="text;html=1;strokeColor=none;fillColor=none;align=center;verticalAlign=middle;whiteSpace=wrap;rounded=1;fontFamily=Comic Sans MS;" vertex="1" parent="1">
          <mxGeometry x="45" y="180" width="40" height="20" as="geometry" />
        </mxCell>
        <mxCell id="yfNpy2FmDrcI2LS20z6D-7" style="edgeStyle=orthogonalEdgeStyle;orthogonalLoop=1;jettySize=auto;html=1;fontFamily=Comic Sans MS;" edge="1" parent="1" source="yfNpy2FmDrcI2LS20z6D-3" target="yfNpy2FmDrcI2LS20z6D-6">
          <mxGeometry relative="1" as="geometry" />
        </mxCell>
        <mxCell id="yfNpy2FmDrcI2LS20z6D-3" value="transaction id of zalo" style="text;html=1;strokeColor=none;fillColor=none;align=center;verticalAlign=middle;whiteSpace=wrap;rounded=1;fontFamily=Comic Sans MS;" vertex="1" parent="1">
          <mxGeometry x="-240" y="265" width="120" height="30" as="geometry" />
        </mxCell>
        <mxCell id="yfNpy2FmDrcI2LS20z6D-6" value="" style="whiteSpace=wrap;html=1;rounded=1;fillColor=#dae8fc;strokeColor=#6c8ebf;fontFamily=Comic Sans MS;" vertex="1" parent="1">
          <mxGeometry x="2.5" y="260" width="125" height="40" as="geometry" />
        </mxCell>
        <mxCell id="yfNpy2FmDrcI2LS20z6D-4" value="transaction_id" style="text;html=1;strokeColor=none;fillColor=none;align=center;verticalAlign=middle;whiteSpace=wrap;rounded=1;fontFamily=Comic Sans MS;" vertex="1" parent="1">
          <mxGeometry x="40" y="270" width="40" height="20" as="geometry" />
        </mxCell>
        <mxCell id="yfNpy2FmDrcI2LS20z6D-9" value="" style="whiteSpace=wrap;html=1;rounded=1;fillColor=#ffe6cc;strokeColor=#d79b00;fontFamily=Comic Sans MS;" vertex="1" parent="1">
          <mxGeometry x="320" y="150" width="150" height="280" as="geometry" />
        </mxCell>
        <mxCell id="yfNpy2FmDrcI2LS20z6D-10" value="money_flow_log" style="text;html=1;strokeColor=none;fillColor=none;align=center;verticalAlign=middle;whiteSpace=wrap;rounded=1;fontFamily=Comic Sans MS;" vertex="1" parent="1">
          <mxGeometry x="375" y="180" width="40" height="20" as="geometry" />
        </mxCell>
        <mxCell id="yfNpy2FmDrcI2LS20z6D-11" value="" style="whiteSpace=wrap;html=1;rounded=1;fillColor=#dae8fc;strokeColor=#6c8ebf;fontFamily=Comic Sans MS;" vertex="1" parent="1">
          <mxGeometry x="332.5" y="260" width="125" height="40" as="geometry" />
        </mxCell>
        <mxCell id="yfNpy2FmDrcI2LS20z6D-12" value="transaction_id" style="text;html=1;strokeColor=none;fillColor=none;align=center;verticalAlign=middle;whiteSpace=wrap;rounded=1;fontFamily=Comic Sans MS;" vertex="1" parent="1">
          <mxGeometry x="370" y="270" width="40" height="20" as="geometry" />
        </mxCell>
        <mxCell id="yfNpy2FmDrcI2LS20z6D-17" value="" style="whiteSpace=wrap;html=1;rounded=1;fillColor=#ffe6cc;strokeColor=#d79b00;fontFamily=Comic Sans MS;" vertex="1" parent="1">
          <mxGeometry x="-10" y="585" width="150" height="280" as="geometry" />
        </mxCell>
        <mxCell id="yfNpy2FmDrcI2LS20z6D-18" value="money_flow_log" style="text;html=1;strokeColor=none;fillColor=none;align=center;verticalAlign=middle;whiteSpace=wrap;rounded=1;fontFamily=Comic Sans MS;" vertex="1" parent="1">
          <mxGeometry x="45" y="615" width="40" height="20" as="geometry" />
        </mxCell>
        <mxCell id="yfNpy2FmDrcI2LS20z6D-33" style="edgeStyle=orthogonalEdgeStyle;orthogonalLoop=1;jettySize=auto;html=1;entryX=0;entryY=0.5;entryDx=0;entryDy=0;fontFamily=Comic Sans MS;" edge="1" parent="1" source="yfNpy2FmDrcI2LS20z6D-19" target="yfNpy2FmDrcI2LS20z6D-23">
          <mxGeometry relative="1" as="geometry" />
        </mxCell>
        <mxCell id="yfNpy2FmDrcI2LS20z6D-34" style="edgeStyle=orthogonalEdgeStyle;orthogonalLoop=1;jettySize=auto;html=1;entryX=0;entryY=0.5;entryDx=0;entryDy=0;fontFamily=Comic Sans MS;" edge="1" parent="1" source="yfNpy2FmDrcI2LS20z6D-19" target="yfNpy2FmDrcI2LS20z6D-28">
          <mxGeometry relative="1" as="geometry" />
        </mxCell>
        <mxCell id="yfNpy2FmDrcI2LS20z6D-19" value="" style="whiteSpace=wrap;html=1;rounded=1;fillColor=#f8cecc;strokeColor=#b85450;fontFamily=Comic Sans MS;" vertex="1" parent="1">
          <mxGeometry x="2.5" y="695" width="125" height="40" as="geometry" />
        </mxCell>
        <mxCell id="yfNpy2FmDrcI2LS20z6D-20" value="transaction_id" style="text;html=1;strokeColor=none;fillColor=none;align=center;verticalAlign=middle;whiteSpace=wrap;rounded=1;fontFamily=Comic Sans MS;" vertex="1" parent="1">
          <mxGeometry x="40" y="705" width="40" height="20" as="geometry" />
        </mxCell>
        <mxCell id="yfNpy2FmDrcI2LS20z6D-21" value="" style="whiteSpace=wrap;html=1;rounded=1;fillColor=#e1d5e7;strokeColor=#9673a6;fontFamily=Comic Sans MS;" vertex="1" parent="1">
          <mxGeometry x="320" y="580" width="150" height="160" as="geometry" />
        </mxCell>
        <mxCell id="yfNpy2FmDrcI2LS20z6D-22" value="item_log" style="text;html=1;strokeColor=none;fillColor=none;align=center;verticalAlign=middle;whiteSpace=wrap;rounded=1;fontFamily=Comic Sans MS;" vertex="1" parent="1">
          <mxGeometry x="375" y="610" width="40" height="20" as="geometry" />
        </mxCell>
        <mxCell id="yfNpy2FmDrcI2LS20z6D-23" value="" style="whiteSpace=wrap;html=1;rounded=1;fillColor=#f8cecc;strokeColor=#b85450;fontFamily=Comic Sans MS;" vertex="1" parent="1">
          <mxGeometry x="332.5" y="660" width="125" height="40" as="geometry" />
        </mxCell>
        <mxCell id="yfNpy2FmDrcI2LS20z6D-24" value="transaction_id" style="text;html=1;strokeColor=none;fillColor=none;align=center;verticalAlign=middle;whiteSpace=wrap;rounded=1;fontFamily=Comic Sans MS;" vertex="1" parent="1">
          <mxGeometry x="370" y="670" width="40" height="20" as="geometry" />
        </mxCell>
        <mxCell id="yfNpy2FmDrcI2LS20z6D-26" value="" style="whiteSpace=wrap;html=1;rounded=1;fillColor=#e1d5e7;strokeColor=#9673a6;fontFamily=Comic Sans MS;" vertex="1" parent="1">
          <mxGeometry x="320" y="820" width="150" height="160" as="geometry" />
        </mxCell>
        <mxCell id="yfNpy2FmDrcI2LS20z6D-27" value="item_log" style="text;html=1;strokeColor=none;fillColor=none;align=center;verticalAlign=middle;whiteSpace=wrap;rounded=1;fontFamily=Comic Sans MS;" vertex="1" parent="1">
          <mxGeometry x="375" y="850" width="40" height="20" as="geometry" />
        </mxCell>
        <mxCell id="yfNpy2FmDrcI2LS20z6D-28" value="" style="whiteSpace=wrap;html=1;rounded=1;fillColor=#f8cecc;strokeColor=#b85450;fontFamily=Comic Sans MS;" vertex="1" parent="1">
          <mxGeometry x="332.5" y="900" width="125" height="40" as="geometry" />
        </mxCell>
        <mxCell id="yfNpy2FmDrcI2LS20z6D-29" value="transaction_id" style="text;html=1;strokeColor=none;fillColor=none;align=center;verticalAlign=middle;whiteSpace=wrap;rounded=1;fontFamily=Comic Sans MS;" vertex="1" parent="1">
          <mxGeometry x="370" y="910" width="40" height="20" as="geometry" />
        </mxCell>
        <mxCell id="yfNpy2FmDrcI2LS20z6D-32" style="edgeStyle=orthogonalEdgeStyle;orthogonalLoop=1;jettySize=auto;html=1;fontFamily=Comic Sans MS;" edge="1" parent="1" source="yfNpy2FmDrcI2LS20z6D-6" target="yfNpy2FmDrcI2LS20z6D-11">
          <mxGeometry relative="1" as="geometry" />
        </mxCell>
      </root>
    </mxGraphModel>
  </diagram>
</mxfile>
